# xmcd CD database file
#
# Track frame offsets:
#	183
#	14470
#	28735
#	38985
#	51393
#	56105
#	70195
#	76058
#	86423
#	93955
#	104963
#	117815
#	126763
#	136123
#	144368
#	151248
#	161265
#	204240
#	219403
#	229248
#	242918
#
# Disc length: 3476 seconds
#
# Revision: 0
# Processed by: cddbd v1.4PL0 Copyright (c) Steve Scherf et al.
# Submitted via: CDex 1.51
#
DISCID=1c0d9215
DTITLE=Marlene Dietich - Das Lied ist aus
DYEAR=1900
DGENRE=Jazz
TTITLE0=Quand l'Amour Meurt
TTITLE1=Wo Ist Der Mann
TTITLE2=A Touch of Paradise
TTITLE3=Ruins of Berlin
TTITLE4=Indiana
TTITLE5=You go to my head
TTITLE6=Ich Weiss Nicht, Zu Wen Ich Gehore
TTITLE7=Symphonie
TTITLE8=Ein Roman
TTITLE9=Let's call it a day
TTITLE10=No Love, No Nothin'
TTITLE11=It Must Have Been Something I Dreamt Last Night
TTITLE12=Lieb Zu Mir
TTITLE13=Je Sais Que Vous Etes Jollie
TTITLE14=Love Me
TTITLE15=Das Alte Lied
TTITLE16=Marlene Dietrich and Bing Crosby
TTITLE17=La Vie En Rose
TTITLE18=I Am The Naughty Lola
TTITLE19=Lili Marlene
TTITLE20=Das Lied Ist Aus
EXTD=
EXTT0=
EXTT1=
EXTT2=
EXTT3=
EXTT4=
EXTT5=
EXTT6=
EXTT7=
EXTT8=
EXTT9=
EXTT10=
EXTT11=
EXTT12=
EXTT13=
EXTT14=
EXTT15=
EXTT16=
EXTT17=
EXTT18=
EXTT19=
EXTT20=
PLAYORDER=
